<svg id="android_tv" data-name="android tv" xmlns="http://www.w3.org/2000/svg" width="191" height="72" viewBox="0 0 191 72">
  <g id="base" fill="#fff" stroke="#e5e5e5" stroke-width="0.5">
    <rect width="191" height="72" rx="5" stroke="none"/>
    <rect x="0.25" y="0.25" width="190.5" height="71.5" rx="4.75" fill="none"/>
  </g>
  <g id="android_tv_icon" data-name="android tv icon" transform="translate(14.626 21.991)">
    <path id="android" d="M5142.444-1749.912a5.594,5.594,0,0,1-5.5-5.7,5.613,5.613,0,0,1,5.5-5.679,5.4,5.4,0,0,1,4.9,2.66,1.051,1.051,0,0,1,.139.48v5.039a1.035,1.035,0,0,1-.1.38,5.62,5.62,0,0,1-4.939,2.82m9.98,4.339v-20h-4.941v1.679a7.741,7.741,0,0,0-5.579-2.078,10.039,10.039,0,0,0-9.959,10.357c0,5.782,4.3,10.441,9.959,10.441a7.768,7.768,0,0,0,5.579-2.121v1.719Zm21.458,0v-10.818a9.431,9.431,0,0,0-9.419-9.579,9.419,9.419,0,0,0-9.418,9.579v10.818h4.938v-10.818a4.411,4.411,0,0,1,4.479-4.621,4.422,4.422,0,0,1,4.48,4.621v10.818Zm12.56-4.339a5.594,5.594,0,0,1-5.5-5.7,5.613,5.613,0,0,1,5.5-5.679,5.643,5.643,0,0,1,4.9,2.66,1.051,1.051,0,0,1,.139.48v5.061a.975.975,0,0,1-.1.358,5.628,5.628,0,0,1-4.941,2.82m9.98,4.339v-26h-4.941v7.677a7.774,7.774,0,0,0-5.579-2.14,10.093,10.093,0,0,0-9.958,10.42c0,5.782,4.3,10.441,9.958,10.441a7.763,7.763,0,0,0,5.579-2.121v1.719Zm7.559,0v-10.68c0-3.159,1.659-4.838,4.819-4.838v-4.879c-6.36,0-9.758,3.379-9.758,9.717v10.68Zm15.618-4.578a5.449,5.449,0,0,1-5.437-5.462,5.442,5.442,0,0,1,5.438-5.437,5.437,5.437,0,0,1,5.462,5.438,5.444,5.444,0,0,1-5.462,5.462m0,4.979a10.438,10.438,0,0,0,10.46-10.441,10.382,10.382,0,0,0-10.46-10.357,10.379,10.379,0,0,0-10.438,10.357,10.435,10.435,0,0,0,10.438,10.441m15.179-21.918a2.878,2.878,0,0,0,2.861-2.88,2.864,2.864,0,0,0-2.861-2.88,2.863,2.863,0,0,0-2.858,2.88,2.877,2.877,0,0,0,2.858,2.88m2.459,1.519H5232.3v20h4.941Zm12.741,15.659a5.594,5.594,0,0,1-5.5-5.7,5.613,5.613,0,0,1,5.5-5.679,5.639,5.639,0,0,1,4.9,2.66,1.01,1.01,0,0,1,.141.48v5.08a.828.828,0,0,1-.1.339,5.62,5.62,0,0,1-4.938,2.82m9.977,4.339v-26h-4.938v7.677a7.739,7.739,0,0,0-5.579-2.077,10.041,10.041,0,0,0-9.961,10.357c0,5.782,4.3,10.46,9.961,10.46a7.779,7.779,0,0,0,5.579-2.14v1.719Z" transform="translate(-5131.946 1772.847)" fill="#77c159"/>
    <path id="tv" d="M5556.937-1741.751l8.119-20.02h-4.079l-6.641,17.36h1.38l-6.658-17.338h-4.2l8.12,20Zm-13.059.239.02-3.558h-.439c-2.9,0-4.941-1.741-4.941-4.681v-8.7h5.22v-3.3h-5.22v-5.421H5534.9v17.419c0,5.18,3.359,8.239,8.559,8.239Z" transform="translate(-5402.885 1769.029)" fill="#868686"/>
  </g>
</svg>
