<svg id="android" xmlns="http://www.w3.org/2000/svg" width="191" height="72" viewBox="0 0 191 72">
  <g id="android_icon" data-name="android icon">
    <g id="base" fill="#fff">
      <path d="M 186 71.75 L 5 71.75 C 2.380833387374878 71.75 0.25 69.61916351318359 0.25 67 L 0.25 5 C 0.25 2.380833387374878 2.380833387374878 0.25 5 0.25 L 186 0.25 C 188.6191711425781 0.25 190.75 2.380833387374878 190.75 5 L 190.75 67 C 190.75 69.61916351318359 188.6191711425781 71.75 186 71.75 Z" stroke="none"/>
      <path d="M 5 0.5 C 2.518692016601562 0.5 0.5 2.518692016601562 0.5 5 L 0.5 67 C 0.5 69.48130798339844 2.518692016601562 71.5 5 71.5 L 186 71.5 C 188.4813079833984 71.5 190.5 69.48130798339844 190.5 67 L 190.5 5 C 190.5 2.518692016601562 188.4813079833984 0.5 186 0.5 L 5 0.5 M 5 0 L 186 0 C 188.7614288330078 0 191 2.238571166992188 191 5 L 191 67 C 191 69.76142883300781 188.7614288330078 72 186 72 L 5 72 C 2.238571166992188 72 0 69.76142883300781 0 67 L 0 5 C 0 2.238571166992188 2.238571166992188 0 5 0 Z" stroke="none" fill="#e5e5e5"/>
    </g>
    <path id="android-2" data-name="android" d="M143.009,125.778a2.321,2.321,0,1,1,2.321-2.321,2.324,2.324,0,0,1-2.321,2.321m-25.65,0a2.321,2.321,0,1,1,2.32-2.321,2.324,2.324,0,0,1-2.32,2.321M143.841,111.8l4.638-8.033a.965.965,0,0,0-1.671-.965l-4.7,8.134a29.154,29.154,0,0,0-23.856,0l-4.7-8.134a.965.965,0,1,0-1.671.965l4.638,8.033a27.384,27.384,0,0,0-14.208,21.919h55.729A27.388,27.388,0,0,0,143.841,111.8" transform="translate(-34.655 -82.02)" fill="#3ddb85"/>
  </g>
</svg>
