<svg id="apple_tv" data-name="apple tv" xmlns="http://www.w3.org/2000/svg" width="191" height="72" viewBox="0 0 191 72">
  <g id="base" fill="#fff" stroke="#e5e5e5" stroke-width="0.5">
    <rect width="191" height="72" rx="5" stroke="none"/>
    <rect x="0.25" y="0.25" width="190.5" height="71.5" rx="4.75" fill="none"/>
  </g>
  <g id="apple_tv_icon" data-name="apple tv icon" transform="translate(67.02 21.991)">
    <path id="tv" d="M3430.221,272.2v4.526h5.678v1.622h-5.678V291.71a6.085,6.085,0,0,0,.662,3.138,2.455,2.455,0,0,0,2.284,1.088,8.824,8.824,0,0,0,1.323-.085,5.768,5.768,0,0,0,.939-.214l.213,1.537a6.641,6.641,0,0,1-2.732.47,5.09,5.09,0,0,1-2.327-.47,3.666,3.666,0,0,1-1.452-1.3,5.5,5.5,0,0,1-.748-2.006,14.112,14.112,0,0,1-.214-2.54V278.348H3424.8v-1.622h3.373v-3.758l2.049-.768Zm8.966,4.525,4.7,12.722q.6,1.495,1.067,2.817t.9,2.6h.085q.426-1.238.918-2.583t1.088-2.839l4.739-12.722h2.135l-8.154,20.492h-1.751l-7.854-20.491Z" transform="translate(-3396.453 -269.947)" fill="#231f20"/>
    <path id="apple" d="M12.458,2.41A5.929,5.929,0,0,1,16.809,0a5.912,5.912,0,0,1-1.432,4.427,4.676,4.676,0,0,1-4.124,1.94A5.143,5.143,0,0,1,12.458,2.41h0Zm-.975,5.537c.936,0,2.673-1.287,4.936-1.287a6.181,6.181,0,0,1,5.425,2.77,6.014,6.014,0,0,0-3,5.248,6.167,6.167,0,0,0,3.731,5.637s-2.608,7.342-6.132,7.342c-1.618,0-2.876-1.091-4.581-1.091S8.4,27.7,7.282,27.7C4.065,27.7,0,20.733,0,15.135s3.441-8.4,6.667-8.4c2.1,0,3.726,1.21,4.816,1.21Z" transform="translate(0 0)" fill="#231f20"/>
  </g>
</svg>
