<svg xmlns="http://www.w3.org/2000/svg" width="203" height="80" viewBox="0 0 203 80">
  <g id="Hilton_-_color" data-name="Hilton - color" transform="translate(-0.083)">
    <g id="Rectangle_2452" data-name="Rectangle 2452" transform="translate(0.083)" fill="#fff" stroke="#707070" stroke-width="1" opacity="0">
      <rect width="203" height="80" stroke="none"/>
      <rect x="0.5" y="0.5" width="202" height="79" fill="none"/>
    </g>
    <g id="Hilton_Worldwide_logo" transform="translate(53.732 22.358)">
      <path id="Path_11" data-name="Path 11" d="M0-404.152V-386.3H96.175V-422H0Zm94.569,0v16.238l-46.455-.017L1.65-387.956l-.027-16.222-.017-16.216H94.569Z" transform="translate(0 422)" fill="#020a19"/>
      <path id="Path_12" data-name="Path 12" d="M98-324.543v.457l.364.059c.194.026.482.078.635.1l.271.042-.02,8.518-.026,8.51-.609.068L98-306.71v1h6.429v-1l-.609-.078-.618-.068-.026-3.874-.017-3.866h8.459v3.84c0,3.206-.017,3.849-.119,3.882a5.233,5.233,0,0,1-.719.11l-.6.059v.99h6.6v-1l-.567-.059a5.452,5.452,0,0,1-.677-.1c-.093-.034-.11-1.557-.11-8.527v-8.484l.338-.051c.186-.026.49-.078.677-.1l.338-.051V-325h-6.6v.913l.406.051c.22.034.541.078.719.1l.312.051v7.26h-8.456v-7.26l.364-.059c1-.152.9-.093.9-.6V-325H98Z" transform="translate(-89.71 333.205)" fill="#020a19"/>
      <path id="Path_13" data-name="Path 13" d="M368.029-324.82a1.9,1.9,0,0,0-.933,2.152,1.9,1.9,0,0,0,1.869,1.417,1.817,1.817,0,0,0,1.455-.668,1.831,1.831,0,0,0-.009-2.47,1.9,1.9,0,0,0-2.383-.431Z" transform="translate(-335.98 333.261)" fill="#020a19"/>
      <path id="Path_14" data-name="Path 14" d="M457-324.585v.415l.575.068.567.078.025,8.645.017,8.636-.229.051c-.135.025-.4.068-.592.093l-.364.059v.829h6.006v-.829l-.355-.059c-.2-.026-.468-.068-.592-.093l-.234-.051V-325H457Z" transform="translate(-418.343 333.205)" fill="#020a19"/>
      <path id="Path_15" data-name="Path 15" d="M547.339-305.367l-1.718.516v2.918H543v1.269h2.529l.026,5.135c.034,5.718.034,5.659.618,6.471.888,1.218,3.544,1.345,6.708.312l.525-.177v-.931l-.254.059a10.422,10.422,0,0,1-1.337.059c-1.539.009-2.03-.178-2.4-.931l-.194-.4-.025-4.8-.026-4.8h3.223v-1.269h-3.215v-1.988a16.24,16.24,0,0,0-.059-1.979C549.073-305.892,548.278-305.655,547.339-305.367Z" transform="translate(-497.069 315.721)" fill="#020a19"/>
      <path id="Path_16" data-name="Path 16" d="M680.33-263.591a8.619,8.619,0,0,0-3.739,1.506,7.042,7.042,0,0,0-2.264,3.561,12.68,12.68,0,0,0-.135,4.178,5.912,5.912,0,0,0,1.658,3.476c1.1,1.108,2.614,1.65,4.906,1.742a7.7,7.7,0,0,0,5.836-1.886,6.518,6.518,0,0,0,2.089-4.847,8.722,8.722,0,0,0-.432-3.4,5.464,5.464,0,0,0-1.531-2.479,4.635,4.635,0,0,0-1.483-1.083,7.365,7.365,0,0,0-3.426-.781C681.159-263.617,680.491-263.608,680.33-263.591Zm1.522,1.049a2.85,2.85,0,0,1,2.157,1.819,9.581,9.581,0,0,1,.719,4.39c0,4.238-1.032,6.15-3.341,6.158a2.469,2.469,0,0,1-1.963-.77c-1.074-1.1-1.6-3.654-1.379-6.648s1.125-4.627,2.732-4.948a2.1,2.1,0,0,1,1.074,0Z" transform="translate(-617.059 277.007)" fill="#020a19"/>
      <path id="Path_17" data-name="Path 17" d="M873.068-262.736a7.856,7.856,0,0,0-3.468,1.557,4.343,4.343,0,0,1-.7.468,2.655,2.655,0,0,1-.078-.888v-.892H864v.913l.406.051c.22.034.5.078.634.1l.229.051v11.554l-.482.051c-.787.093-.787.093-.787.567v.415h6.089v-.423a.854.854,0,0,0-.059-.432c-.034-.009-.312-.051-.617-.11l-.547-.093v-9.811l.423-.279a7.4,7.4,0,0,1,1.1-.541,3.041,3.041,0,0,1,1.438-.279,1.923,1.923,0,0,1,1.666.609c.668.7.761,1.489.728,6.454l-.026,3.849-.547.093c-.3.059-.575.1-.609.11a.811.811,0,0,0-.068.432v.423h6.089v-.415c0-.474,0-.474-.781-.558l-.482-.059-.026-4.923c-.026-4.872-.034-4.923-.229-5.507a3.351,3.351,0,0,0-1.023-1.675,3.5,3.5,0,0,0-1.979-.82A3.747,3.747,0,0,0,873.068-262.736Z" transform="translate(-790.916 276.278)" fill="#020a19"/>
      <path id="Path_18" data-name="Path 18" d="M354-258.585v.415l.406.051c.22.034.5.078.635.1l.229.051-.017,5.8-.026,5.811-.546.093c-.3.059-.575.1-.609.11a.811.811,0,0,0-.068.432v.423h6.1l-.025-.39c-.034-.468-.093-.516-.761-.584l-.49-.051V-259H354Z" transform="translate(-324.056 272.788)" fill="#020a19"/>
    </g>
  </g>
</svg>
