<svg id="ios" xmlns="http://www.w3.org/2000/svg" width="191" height="72" viewBox="0 0 191 72">
  <g id="base" fill="#fff" stroke="#e5e5e5" stroke-width="0.5">
    <rect width="191" height="72" rx="5" stroke="none"/>
    <rect x="0.25" y="0.25" width="190.5" height="71.5" rx="4.75" fill="none"/>
  </g>
  <path id="ios_icon" data-name="ios icon" d="M.932,27.253H5.548V7.6H.932ZM3.23,5.024A2.513,2.513,0,1,0,3.23,0a2.512,2.512,0,1,0,0,5.024ZM20.917.055c-7.8,0-12.7,5.321-12.7,13.83S13.112,27.7,20.917,27.7C28.7,27.7,33.6,22.4,33.6,13.886S28.7.055,20.917.055Zm0,4.079c4.765,0,7.8,3.782,7.8,9.752,0,5.951-3.04,9.733-7.8,9.733-4.783,0-7.8-3.782-7.8-9.733C13.113,7.916,16.134,4.134,20.917,4.134ZM35.546,19.726c.2,4.932,4.245,7.972,10.4,7.972,6.47,0,10.549-3.189,10.549-8.268,0-3.986-2.3-6.229-7.731-7.471l-3.077-.7c-3.282-.779-4.635-1.817-4.635-3.6,0-2.225,2.039-3.708,5.061-3.708,3.059,0,5.154,1.5,5.376,4h4.56c-.111-4.709-4-7.9-9.9-7.9-5.822,0-9.956,3.207-9.956,7.953,0,3.819,2.336,6.192,7.267,7.323l3.467.816c3.374.8,4.746,1.91,4.746,3.838,0,2.225-2.243,3.819-5.469,3.819-3.263,0-5.728-1.613-6.025-4.079H35.546Z" transform="translate(66.593 21.991)"/>
</svg>
