<svg id="Marriott_intl_color" data-name="Marriott intl color" xmlns="http://www.w3.org/2000/svg" width="203" height="80" viewBox="0 0 203 80">
  <g id="Rectangle_2467" data-name="Rectangle 2467" fill="#fff" stroke="#707070" stroke-width="1" opacity="0">
    <rect width="203" height="80" stroke="none"/>
    <rect x="0.5" y="0.5" width="202" height="79" fill="none"/>
  </g>
  <g id="Group_15" data-name="Group 15" transform="translate(48.651 23.039)">
    <path id="Path_35" data-name="Path 35" d="M99.8,153.878v-5.485h1.211v5.485Zm7.358,0-2.648-3.48v3.48h-1.191v-5.485h1.116l2.554,3.386v-3.386h1.191v5.485Zm5.334-4.372v4.372h-1.211v-4.372h-1.664V148.39h4.54v1.116Zm3.123,4.372v-5.485h4.124v1.077h-2.931v1.1h2.576v1.078h-2.576v1.171h2.967v1.078Zm9.476,0-1.171-1.759h-.945v1.759h-1.211v-5.485h2.5c1.287,0,2.062.681,2.062,1.816v.019a1.693,1.693,0,0,1-1.171,1.7l1.343,1.967h-1.4Zm.019-3.613c0-.529-.359-.775-.945-.775h-1.191v1.57h1.211c.586,0,.927-.322.927-.795Zm7.036,3.613L129.5,150.4v3.48h-1.191v-5.485h1.116l2.554,3.386v-3.386h1.191v5.485Zm7.018,0-.492-1.23h-2.326l-.492,1.23h-1.234l2.342-5.523h1.116l2.342,5.523Zm-1.664-4.085-.719,1.778h1.457Zm6.071-.283v4.372h-1.211v-4.372h-1.664v-1.116h4.541v1.116Zm3.253,4.372V148.4h1.211v5.485Zm5.977.094a2.81,2.81,0,0,1-2.894-2.818v-.019a2.9,2.9,0,0,1,5.807-.019v.019a2.816,2.816,0,0,1-2.913,2.837Zm1.664-2.837a1.656,1.656,0,0,0-1.607-1.717H152.8a1.648,1.648,0,0,0-1.646,1.7v.019a1.656,1.656,0,0,0,1.607,1.718h.057a1.653,1.653,0,0,0,1.646-1.718Zm7.055,2.743-2.648-3.48v3.48H157.7V148.4h1.116l2.554,3.386V148.4h1.191v5.485Zm7.018,0-.492-1.23h-2.308l-.492,1.23h-1.23l2.342-5.523h1.116l2.342,5.523Zm-1.646-4.085-.719,1.778h1.457Zm4.275,4.085V148.4h1.211v4.388H175.1v1.1Z" transform="translate(-80.924 -120.248)" fill="#020a19"/>
    <path id="Path_36" data-name="Path 36" d="M56.63,10.63a4.657,4.657,0,0,0-2.062-.546,2.929,2.929,0,0,0-2.459,1.4V22.66H47.738V6.979h3.991l.246,1.646a3.928,3.928,0,0,1,3.275-1.989,4.334,4.334,0,0,1,1.381.246v3.747ZM67,6.883a4.812,4.812,0,0,0-1.381-.247,3.928,3.928,0,0,0-3.272,1.986L62.1,6.979H58.106V22.66h4.372V11.481a2.96,2.96,0,0,1,2.459-1.4A4.657,4.657,0,0,1,67,10.628Zm-21.922,4.6V22.66h-4.01l-.246-1.627A5.433,5.433,0,0,1,36.619,23,4.194,4.194,0,0,1,32.4,18.517c0-5.543,6.526-6.317,8.322-6.506v-.457c0-.908-.756-1.853-2.781-1.853a7.138,7.138,0,0,0-4.067,1.4V7.869a12.322,12.322,0,0,1,5.445-1.211c4.01-.022,5.75,1.816,5.75,4.823ZM40.7,15.053c-1.381,0-3.915.473-3.915,2.667a1.775,1.775,0,0,0,1.7,1.913c1.23,0,2.213-.889,2.213-2.894ZM16.758,2.342l3.934,8.439-1.532,3.31L12.6,0,7.623,2.326l3.915,8.436c-.3.662-.795,1.718-1.589,3.423C8.154,18.025,6.772,19.1,4.313,19.1a6.46,6.46,0,0,1-1.986-.359L0,23.738a10.007,10.007,0,0,0,3.707.775c2.913,0,5.05-1.892,6.9-5.882L12.9,13.712l4.161,8.965h6.071L20.5,17.022l1.532-3.31L26.2,22.677h6.071L21.752,0Zm87.1,4.637V1.8L99.488,3.839V6.979h-1.4V9.7h1.4V22.663h4.372V9.7h2.213V6.979ZM68.623,22.66h4.372V6.979H68.623ZM94.591,1.8,90.22,3.839V6.979h-1.4V9.7h1.4V22.663h4.372V9.7h2.214V6.979H94.592ZM87.82,13.522V16.1c0,3.747-1.816,6.885-6.3,6.885-4.464,0-6.3-3.123-6.3-6.885V13.522c0-3.747,1.816-6.885,6.3-6.885S87.82,9.8,87.82,13.522Zm-4.407-.605c0-1.874-.454-3.2-1.892-3.2s-1.891,1.326-1.891,3.2V16.74c0,1.874.454,3.2,1.892,3.2,1.457,0,1.892-1.327,1.892-3.2Z" transform="translate(0 0)" fill="#020a19"/>
  </g>
</svg>
