<svg xmlns="http://www.w3.org/2000/svg" width="203" height="80" viewBox="0 0 203 80">
  <g id="Saic_-_color" data-name="Saic - color" transform="translate(-0.062)">
    <g id="Rectangle_2464" data-name="Rectangle 2464" transform="translate(0.062)" fill="#fff" stroke="#707070" stroke-width="1" opacity="0">
      <rect width="203" height="80" stroke="none"/>
      <rect x="0.5" y="0.5" width="202" height="79" fill="none"/>
    </g>
    <g id="SAIC_Logo_color" transform="translate(59.332 26.544)">
      <path id="Path_43" data-name="Path 43" d="M9.915,6.647c.39-1.827.13-2.441,2.8-2.441,3.525,0,11.221.016,11.221.016L25.012-.047H11.4c-1.778,0-5.658-.518-6.71,6.289-.453,2.926-.711,4.366-.776,5.3-.177,2.393,2.038,3.1,3.895,3.1h8.07c1.212,0,1.718,0,1.552.873-.291,1.552-.921,4.543-1.132,5.448-.323,1.422-2.037,1.212-3.591,1.229H1.015L0,26.469H14.632c3.1,0,5.95-1.067,6.726-4.01.792-3.007,1.2-5.044,1.649-7.438.546-2.862-1.277-4.964-4.64-4.964H11.253c-.76,0-2,.178-1.762-1.067.1-.546.178-1.2.42-2.342" transform="translate(0 0.056)" fill="#020a19"/>
      <path id="Path_44" data-name="Path 44" d="M155.369,26.683H160.8L157.469.2H151.38L136,26.683h5.836s2.942-5.012,3.072-5.238h8.423l.921-3.945h-7.211c.5-.808,6.031-9.846,6.144-10.057.032.178,2.186,19.24,2.186,19.24" transform="translate(-114.012 -0.159)" fill="#020a19"/>
      <path id="Path_45" data-name="Path 45" d="M316.564,0h-6.1L304.6,26.515h6.209Z" transform="translate(-255.353 0.009)" fill="#020a19"/>
      <path id="Path_46" data-name="Path 46" d="M391.392,6.68c.178-.841.4-2.342,2.441-2.342H405.6L406.687.1H392.311c-5.465,0-5.821,5.27-6.176,7.017s-2.8,12.647-2.91,13.144c-.631,3.1,1,6.37,5.756,6.37H402.1l.988-4.282H391.023c-2.312,0-2.376-1.374-2.037-3.1l1.2-6.257h0s.679-3.832,1.212-6.306" transform="translate(-321.159 -0.075)" fill="#020a19"/>
    </g>
  </g>
</svg>
